%TF.GenerationSoftware,KiCad,Pcbnew,9.0.2*%
%TF.CreationDate,2025-06-02T11:57:38-04:00*%
%TF.ProjectId,Capstone_Interfacing_PCB,43617073-746f-46e6-955f-496e74657266,v0*%
%TF.SameCoordinates,Original*%
%TF.FileFunction,Paste,Top*%
%TF.FilePolarity,Positive*%
%FSLAX46Y46*%
G04 Gerber Fmt 4.6, Leading zero omitted, Abs format (unit mm)*
G04 Created by KiCad (PCBNEW 9.0.2) date 2025-06-02 11:57:38*
%MOMM*%
%LPD*%
G01*
G04 APERTURE LIST*
G04 Aperture macros list*
%AMRoundRect*
0 Rectangle with rounded corners*
0 $1 Rounding radius*
0 $2 $3 $4 $5 $6 $7 $8 $9 X,Y pos of 4 corners*
0 Add a 4 corners polygon primitive as box body*
4,1,4,$2,$3,$4,$5,$6,$7,$8,$9,$2,$3,0*
0 Add four circle primitives for the rounded corners*
1,1,$1+$1,$2,$3*
1,1,$1+$1,$4,$5*
1,1,$1+$1,$6,$7*
1,1,$1+$1,$8,$9*
0 Add four rect primitives between the rounded corners*
20,1,$1+$1,$2,$3,$4,$5,0*
20,1,$1+$1,$4,$5,$6,$7,0*
20,1,$1+$1,$6,$7,$8,$9,0*
20,1,$1+$1,$8,$9,$2,$3,0*%
G04 Aperture macros list end*
%ADD10RoundRect,0.250000X0.625000X-0.400000X0.625000X0.400000X-0.625000X0.400000X-0.625000X-0.400000X0*%
%ADD11RoundRect,0.250000X-0.412500X-0.650000X0.412500X-0.650000X0.412500X0.650000X-0.412500X0.650000X0*%
%ADD12RoundRect,0.250000X0.412500X0.650000X-0.412500X0.650000X-0.412500X-0.650000X0.412500X-0.650000X0*%
%ADD13RoundRect,0.250000X-0.400000X-0.625000X0.400000X-0.625000X0.400000X0.625000X-0.400000X0.625000X0*%
%ADD14RoundRect,0.250001X0.462499X0.624999X-0.462499X0.624999X-0.462499X-0.624999X0.462499X-0.624999X0*%
%ADD15R,0.650000X1.525000*%
%ADD16RoundRect,0.250000X-0.625000X0.400000X-0.625000X-0.400000X0.625000X-0.400000X0.625000X0.400000X0*%
%ADD17RoundRect,0.250000X-0.650000X0.412500X-0.650000X-0.412500X0.650000X-0.412500X0.650000X0.412500X0*%
%ADD18RoundRect,0.250000X0.650000X-0.412500X0.650000X0.412500X-0.650000X0.412500X-0.650000X-0.412500X0*%
G04 APERTURE END LIST*
D10*
%TO.C,R4*%
X117600000Y-34150000D03*
X117600000Y-31050000D03*
%TD*%
D11*
%TO.C,C18*%
X124000000Y-119510000D03*
X127125000Y-119510000D03*
%TD*%
D12*
%TO.C,C27*%
X103212502Y-36000000D03*
X100087502Y-36000000D03*
%TD*%
D13*
%TO.C,R16*%
X105650000Y-125350000D03*
X108750000Y-125350000D03*
%TD*%
D11*
%TO.C,C21*%
X140787500Y-117550000D03*
X143912500Y-117550000D03*
%TD*%
D14*
%TO.C,D2*%
X45043750Y-143700000D03*
X42068750Y-143700000D03*
%TD*%
D10*
%TO.C,R15*%
X109800000Y-131500000D03*
X109800000Y-128400000D03*
%TD*%
D11*
%TO.C,C2*%
X115050000Y-26250000D03*
X118175000Y-26250000D03*
%TD*%
D13*
%TO.C,R30*%
X150825000Y-51925000D03*
X153925000Y-51925000D03*
%TD*%
%TO.C,R5*%
X69500000Y-137890000D03*
X72600000Y-137890000D03*
%TD*%
D15*
%TO.C,U7*%
X121817500Y-144173000D03*
X123087500Y-144173000D03*
X124357500Y-144173000D03*
X125627500Y-144173000D03*
X125627500Y-138749000D03*
X124357500Y-138749000D03*
X123087500Y-138749000D03*
X121817500Y-138749000D03*
%TD*%
D11*
%TO.C,C4*%
X43537500Y-117300000D03*
X46662500Y-117300000D03*
%TD*%
D13*
%TO.C,R20*%
X131450003Y-32650000D03*
X134550003Y-32650000D03*
%TD*%
%TO.C,R22*%
X124450003Y-32650000D03*
X127550003Y-32650000D03*
%TD*%
D12*
%TO.C,C13*%
X108762500Y-122150000D03*
X105637500Y-122150000D03*
%TD*%
D13*
%TO.C,R13*%
X105650000Y-115950000D03*
X108750000Y-115950000D03*
%TD*%
%TO.C,R18*%
X138550003Y-32650000D03*
X141650003Y-32650000D03*
%TD*%
D10*
%TO.C,R7*%
X73550000Y-153140000D03*
X73550000Y-150040000D03*
%TD*%
D16*
%TO.C,R19*%
X134600003Y-26550000D03*
X134600003Y-29650000D03*
%TD*%
D13*
%TO.C,R2*%
X48556250Y-143700000D03*
X51656250Y-143700000D03*
%TD*%
D12*
%TO.C,C19*%
X129712500Y-130099500D03*
X126587500Y-130099500D03*
%TD*%
D16*
%TO.C,R23*%
X110050002Y-26550000D03*
X110050002Y-29650000D03*
%TD*%
D10*
%TO.C,R11*%
X90970000Y-142260000D03*
X90970000Y-139160000D03*
%TD*%
D12*
%TO.C,C28*%
X96400002Y-36000000D03*
X93275002Y-36000000D03*
%TD*%
%TO.C,C23*%
X141650003Y-36050000D03*
X138525003Y-36050000D03*
%TD*%
D11*
%TO.C,C14*%
X123437500Y-135600000D03*
X126562500Y-135600000D03*
%TD*%
D12*
%TO.C,C29*%
X156987500Y-114175000D03*
X153862500Y-114175000D03*
%TD*%
D16*
%TO.C,R21*%
X127550003Y-26550000D03*
X127550003Y-29650000D03*
%TD*%
D11*
%TO.C,C3*%
X43537500Y-135000000D03*
X46662500Y-135000000D03*
%TD*%
D12*
%TO.C,C26*%
X110050002Y-36000000D03*
X106925002Y-36000000D03*
%TD*%
D13*
%TO.C,R9*%
X86870000Y-126760000D03*
X89970000Y-126760000D03*
%TD*%
D12*
%TO.C,C24*%
X134600002Y-36100000D03*
X131475002Y-36100000D03*
%TD*%
D10*
%TO.C,R29*%
X157150000Y-120550000D03*
X157150000Y-117450000D03*
%TD*%
D13*
%TO.C,R28*%
X93250002Y-32650000D03*
X96350002Y-32650000D03*
%TD*%
%TO.C,R8*%
X69450000Y-147090000D03*
X72550000Y-147090000D03*
%TD*%
%TO.C,R12*%
X86820000Y-136110000D03*
X89920000Y-136110000D03*
%TD*%
D12*
%TO.C,C16*%
X119330000Y-138849000D03*
X116205000Y-138849000D03*
%TD*%
%TO.C,C25*%
X127525002Y-36100000D03*
X124400002Y-36100000D03*
%TD*%
D17*
%TO.C,C20*%
X149000000Y-119437500D03*
X149000000Y-122562500D03*
%TD*%
D13*
%TO.C,R10*%
X86820000Y-129910000D03*
X89920000Y-129910000D03*
%TD*%
D17*
%TO.C,C5*%
X87550000Y-142487500D03*
X87550000Y-145612500D03*
%TD*%
D14*
%TO.C,D1*%
X44687500Y-128400000D03*
X41712500Y-128400000D03*
%TD*%
D11*
%TO.C,C17*%
X133887500Y-126800000D03*
X137012500Y-126800000D03*
%TD*%
D12*
%TO.C,C9*%
X110562500Y-48150000D03*
X107437500Y-48150000D03*
%TD*%
D11*
%TO.C,C1*%
X146475000Y-26300000D03*
X149600000Y-26300000D03*
%TD*%
D16*
%TO.C,R17*%
X141650003Y-26600000D03*
X141650003Y-29700000D03*
%TD*%
D18*
%TO.C,C30*%
X157275000Y-51737500D03*
X157275000Y-48612500D03*
%TD*%
D12*
%TO.C,C22*%
X140187500Y-121486000D03*
X137062500Y-121486000D03*
%TD*%
%TO.C,C11*%
X72612500Y-143990000D03*
X69487500Y-143990000D03*
%TD*%
D13*
%TO.C,R24*%
X106950002Y-32650000D03*
X110050002Y-32650000D03*
%TD*%
D17*
%TO.C,C7*%
X123950000Y-122937500D03*
X123950000Y-126062500D03*
%TD*%
D13*
%TO.C,R1*%
X48250000Y-128410000D03*
X51350000Y-128410000D03*
%TD*%
D12*
%TO.C,C8*%
X129562500Y-48175000D03*
X126437500Y-48175000D03*
%TD*%
D16*
%TO.C,R25*%
X103200002Y-26550000D03*
X103200002Y-29650000D03*
%TD*%
D15*
%TO.C,U8*%
X132145000Y-135399500D03*
X133415000Y-135399500D03*
X134685000Y-135399500D03*
X135955000Y-135399500D03*
X135955000Y-129975500D03*
X134685000Y-129975500D03*
X133415000Y-129975500D03*
X132145000Y-129975500D03*
%TD*%
D13*
%TO.C,R26*%
X100100002Y-32650000D03*
X103200002Y-32650000D03*
%TD*%
D15*
%TO.C,U9*%
X142550000Y-126874000D03*
X143820000Y-126874000D03*
X145090000Y-126874000D03*
X146360000Y-126874000D03*
X146360000Y-121450000D03*
X145090000Y-121450000D03*
X143820000Y-121450000D03*
X142550000Y-121450000D03*
%TD*%
D13*
%TO.C,R6*%
X69500000Y-140890000D03*
X72600000Y-140890000D03*
%TD*%
D12*
%TO.C,C12*%
X89922500Y-133010000D03*
X86797500Y-133010000D03*
%TD*%
D16*
%TO.C,R27*%
X96350002Y-26550000D03*
X96350002Y-29650000D03*
%TD*%
D13*
%TO.C,R14*%
X105650000Y-119150000D03*
X108750000Y-119150000D03*
%TD*%
D12*
%TO.C,C10*%
X90562500Y-48150000D03*
X87437500Y-48150000D03*
%TD*%
D11*
%TO.C,C15*%
X93487500Y-119510000D03*
X96612500Y-119510000D03*
%TD*%
D17*
%TO.C,C6*%
X105100000Y-135100000D03*
X105100000Y-138225000D03*
%TD*%
D10*
%TO.C,R3*%
X149050000Y-34150000D03*
X149050000Y-31050000D03*
%TD*%
M02*
