%TF.GenerationSoftware,KiCad,Pcbnew,9.0.2*%
%TF.CreationDate,2025-06-02T11:58:07-04:00*%
%TF.ProjectId,Capstone_Interfacing_PCB,43617073-746f-46e6-955f-496e74657266,v0*%
%TF.SameCoordinates,Original*%
%TF.FileFunction,Drillmap*%
%TF.FilePolarity,Positive*%
%FSLAX45Y45*%
G04 Gerber Fmt 4.5, Leading zero omitted, Abs format (unit mm)*
G04 Created by KiCad (PCBNEW 9.0.2) date 2025-06-02 11:58:07*
%MOMM*%
%LPD*%
G01*
G04 APERTURE LIST*
%ADD10C,0.050000*%
%ADD11C,0.200000*%
%ADD12C,0.270000*%
G04 APERTURE END LIST*
D10*
X2800000Y-1304000D02*
X16000000Y-1304000D01*
X16000000Y-15994000D01*
X2800000Y-15994000D01*
X2800000Y-1304000D01*
D11*
D12*
X2970000Y-1495000D02*
X3240000Y-1765000D01*
X3240000Y-1495000D02*
X2970000Y-1765000D01*
X2970000Y-15550000D02*
X3240000Y-15820000D01*
X3240000Y-15550000D02*
X2970000Y-15820000D01*
X15560000Y-1495000D02*
X15830000Y-1765000D01*
X15830000Y-1495000D02*
X15560000Y-1765000D01*
X15560000Y-15550000D02*
X15830000Y-15820000D01*
X15830000Y-15550000D02*
X15560000Y-15820000D01*
D11*
X3058277Y-16307984D02*
X3058277Y-16107984D01*
X3058277Y-16107984D02*
X3105896Y-16107984D01*
X3105896Y-16107984D02*
X3134467Y-16117508D01*
X3134467Y-16117508D02*
X3153515Y-16136555D01*
X3153515Y-16136555D02*
X3163039Y-16155603D01*
X3163039Y-16155603D02*
X3172562Y-16193698D01*
X3172562Y-16193698D02*
X3172562Y-16222269D01*
X3172562Y-16222269D02*
X3163039Y-16260365D01*
X3163039Y-16260365D02*
X3153515Y-16279412D01*
X3153515Y-16279412D02*
X3134467Y-16298460D01*
X3134467Y-16298460D02*
X3105896Y-16307984D01*
X3105896Y-16307984D02*
X3058277Y-16307984D01*
X3258277Y-16307984D02*
X3258277Y-16174650D01*
X3258277Y-16212746D02*
X3267801Y-16193698D01*
X3267801Y-16193698D02*
X3277324Y-16184174D01*
X3277324Y-16184174D02*
X3296372Y-16174650D01*
X3296372Y-16174650D02*
X3315420Y-16174650D01*
X3382086Y-16307984D02*
X3382086Y-16174650D01*
X3382086Y-16107984D02*
X3372562Y-16117508D01*
X3372562Y-16117508D02*
X3382086Y-16127031D01*
X3382086Y-16127031D02*
X3391610Y-16117508D01*
X3391610Y-16117508D02*
X3382086Y-16107984D01*
X3382086Y-16107984D02*
X3382086Y-16127031D01*
X3505896Y-16307984D02*
X3486848Y-16298460D01*
X3486848Y-16298460D02*
X3477324Y-16279412D01*
X3477324Y-16279412D02*
X3477324Y-16107984D01*
X3610658Y-16307984D02*
X3591610Y-16298460D01*
X3591610Y-16298460D02*
X3582086Y-16279412D01*
X3582086Y-16279412D02*
X3582086Y-16107984D01*
X3839229Y-16307984D02*
X3839229Y-16107984D01*
X3839229Y-16107984D02*
X3905896Y-16250841D01*
X3905896Y-16250841D02*
X3972562Y-16107984D01*
X3972562Y-16107984D02*
X3972562Y-16307984D01*
X4153515Y-16307984D02*
X4153515Y-16203222D01*
X4153515Y-16203222D02*
X4143991Y-16184174D01*
X4143991Y-16184174D02*
X4124943Y-16174650D01*
X4124943Y-16174650D02*
X4086848Y-16174650D01*
X4086848Y-16174650D02*
X4067801Y-16184174D01*
X4153515Y-16298460D02*
X4134467Y-16307984D01*
X4134467Y-16307984D02*
X4086848Y-16307984D01*
X4086848Y-16307984D02*
X4067801Y-16298460D01*
X4067801Y-16298460D02*
X4058277Y-16279412D01*
X4058277Y-16279412D02*
X4058277Y-16260365D01*
X4058277Y-16260365D02*
X4067801Y-16241317D01*
X4067801Y-16241317D02*
X4086848Y-16231793D01*
X4086848Y-16231793D02*
X4134467Y-16231793D01*
X4134467Y-16231793D02*
X4153515Y-16222269D01*
X4248753Y-16174650D02*
X4248753Y-16374650D01*
X4248753Y-16184174D02*
X4267801Y-16174650D01*
X4267801Y-16174650D02*
X4305896Y-16174650D01*
X4305896Y-16174650D02*
X4324944Y-16184174D01*
X4324944Y-16184174D02*
X4334467Y-16193698D01*
X4334467Y-16193698D02*
X4343991Y-16212746D01*
X4343991Y-16212746D02*
X4343991Y-16269888D01*
X4343991Y-16269888D02*
X4334467Y-16288936D01*
X4334467Y-16288936D02*
X4324944Y-16298460D01*
X4324944Y-16298460D02*
X4305896Y-16307984D01*
X4305896Y-16307984D02*
X4267801Y-16307984D01*
X4267801Y-16307984D02*
X4248753Y-16298460D01*
X4429705Y-16288936D02*
X4439229Y-16298460D01*
X4439229Y-16298460D02*
X4429705Y-16307984D01*
X4429705Y-16307984D02*
X4420182Y-16298460D01*
X4420182Y-16298460D02*
X4429705Y-16288936D01*
X4429705Y-16288936D02*
X4429705Y-16307984D01*
X4429705Y-16184174D02*
X4439229Y-16193698D01*
X4439229Y-16193698D02*
X4429705Y-16203222D01*
X4429705Y-16203222D02*
X4420182Y-16193698D01*
X4420182Y-16193698D02*
X4429705Y-16184174D01*
X4429705Y-16184174D02*
X4429705Y-16203222D01*
X2597500Y-16536500D02*
X2797500Y-16736500D01*
X2797500Y-16536500D02*
X2597500Y-16736500D01*
X3048753Y-16547031D02*
X3058277Y-16537508D01*
X3058277Y-16537508D02*
X3077324Y-16527984D01*
X3077324Y-16527984D02*
X3124943Y-16527984D01*
X3124943Y-16527984D02*
X3143991Y-16537508D01*
X3143991Y-16537508D02*
X3153515Y-16547031D01*
X3153515Y-16547031D02*
X3163039Y-16566079D01*
X3163039Y-16566079D02*
X3163039Y-16585127D01*
X3163039Y-16585127D02*
X3153515Y-16613698D01*
X3153515Y-16613698D02*
X3039229Y-16727984D01*
X3039229Y-16727984D02*
X3163039Y-16727984D01*
X3248753Y-16708936D02*
X3258277Y-16718460D01*
X3258277Y-16718460D02*
X3248753Y-16727984D01*
X3248753Y-16727984D02*
X3239229Y-16718460D01*
X3239229Y-16718460D02*
X3248753Y-16708936D01*
X3248753Y-16708936D02*
X3248753Y-16727984D01*
X3324943Y-16527984D02*
X3458277Y-16527984D01*
X3458277Y-16527984D02*
X3372562Y-16727984D01*
X3572562Y-16527984D02*
X3591610Y-16527984D01*
X3591610Y-16527984D02*
X3610658Y-16537508D01*
X3610658Y-16537508D02*
X3620182Y-16547031D01*
X3620182Y-16547031D02*
X3629705Y-16566079D01*
X3629705Y-16566079D02*
X3639229Y-16604174D01*
X3639229Y-16604174D02*
X3639229Y-16651793D01*
X3639229Y-16651793D02*
X3629705Y-16689888D01*
X3629705Y-16689888D02*
X3620182Y-16708936D01*
X3620182Y-16708936D02*
X3610658Y-16718460D01*
X3610658Y-16718460D02*
X3591610Y-16727984D01*
X3591610Y-16727984D02*
X3572562Y-16727984D01*
X3572562Y-16727984D02*
X3553515Y-16718460D01*
X3553515Y-16718460D02*
X3543991Y-16708936D01*
X3543991Y-16708936D02*
X3534467Y-16689888D01*
X3534467Y-16689888D02*
X3524943Y-16651793D01*
X3524943Y-16651793D02*
X3524943Y-16604174D01*
X3524943Y-16604174D02*
X3534467Y-16566079D01*
X3534467Y-16566079D02*
X3543991Y-16547031D01*
X3543991Y-16547031D02*
X3553515Y-16537508D01*
X3553515Y-16537508D02*
X3572562Y-16527984D01*
X3763039Y-16527984D02*
X3782086Y-16527984D01*
X3782086Y-16527984D02*
X3801134Y-16537508D01*
X3801134Y-16537508D02*
X3810658Y-16547031D01*
X3810658Y-16547031D02*
X3820182Y-16566079D01*
X3820182Y-16566079D02*
X3829705Y-16604174D01*
X3829705Y-16604174D02*
X3829705Y-16651793D01*
X3829705Y-16651793D02*
X3820182Y-16689888D01*
X3820182Y-16689888D02*
X3810658Y-16708936D01*
X3810658Y-16708936D02*
X3801134Y-16718460D01*
X3801134Y-16718460D02*
X3782086Y-16727984D01*
X3782086Y-16727984D02*
X3763039Y-16727984D01*
X3763039Y-16727984D02*
X3743991Y-16718460D01*
X3743991Y-16718460D02*
X3734467Y-16708936D01*
X3734467Y-16708936D02*
X3724943Y-16689888D01*
X3724943Y-16689888D02*
X3715420Y-16651793D01*
X3715420Y-16651793D02*
X3715420Y-16604174D01*
X3715420Y-16604174D02*
X3724943Y-16566079D01*
X3724943Y-16566079D02*
X3734467Y-16547031D01*
X3734467Y-16547031D02*
X3743991Y-16537508D01*
X3743991Y-16537508D02*
X3763039Y-16527984D01*
X3915420Y-16727984D02*
X3915420Y-16594650D01*
X3915420Y-16613698D02*
X3924943Y-16604174D01*
X3924943Y-16604174D02*
X3943991Y-16594650D01*
X3943991Y-16594650D02*
X3972563Y-16594650D01*
X3972563Y-16594650D02*
X3991610Y-16604174D01*
X3991610Y-16604174D02*
X4001134Y-16623222D01*
X4001134Y-16623222D02*
X4001134Y-16727984D01*
X4001134Y-16623222D02*
X4010658Y-16604174D01*
X4010658Y-16604174D02*
X4029705Y-16594650D01*
X4029705Y-16594650D02*
X4058277Y-16594650D01*
X4058277Y-16594650D02*
X4077324Y-16604174D01*
X4077324Y-16604174D02*
X4086848Y-16623222D01*
X4086848Y-16623222D02*
X4086848Y-16727984D01*
X4182086Y-16727984D02*
X4182086Y-16594650D01*
X4182086Y-16613698D02*
X4191610Y-16604174D01*
X4191610Y-16604174D02*
X4210658Y-16594650D01*
X4210658Y-16594650D02*
X4239229Y-16594650D01*
X4239229Y-16594650D02*
X4258277Y-16604174D01*
X4258277Y-16604174D02*
X4267801Y-16623222D01*
X4267801Y-16623222D02*
X4267801Y-16727984D01*
X4267801Y-16623222D02*
X4277325Y-16604174D01*
X4277325Y-16604174D02*
X4296372Y-16594650D01*
X4296372Y-16594650D02*
X4324944Y-16594650D01*
X4324944Y-16594650D02*
X4343991Y-16604174D01*
X4343991Y-16604174D02*
X4353515Y-16623222D01*
X4353515Y-16623222D02*
X4353515Y-16727984D01*
X4743991Y-16518460D02*
X4572563Y-16775603D01*
X5001134Y-16527984D02*
X5020182Y-16527984D01*
X5020182Y-16527984D02*
X5039229Y-16537508D01*
X5039229Y-16537508D02*
X5048753Y-16547031D01*
X5048753Y-16547031D02*
X5058277Y-16566079D01*
X5058277Y-16566079D02*
X5067801Y-16604174D01*
X5067801Y-16604174D02*
X5067801Y-16651793D01*
X5067801Y-16651793D02*
X5058277Y-16689888D01*
X5058277Y-16689888D02*
X5048753Y-16708936D01*
X5048753Y-16708936D02*
X5039229Y-16718460D01*
X5039229Y-16718460D02*
X5020182Y-16727984D01*
X5020182Y-16727984D02*
X5001134Y-16727984D01*
X5001134Y-16727984D02*
X4982087Y-16718460D01*
X4982087Y-16718460D02*
X4972563Y-16708936D01*
X4972563Y-16708936D02*
X4963039Y-16689888D01*
X4963039Y-16689888D02*
X4953515Y-16651793D01*
X4953515Y-16651793D02*
X4953515Y-16604174D01*
X4953515Y-16604174D02*
X4963039Y-16566079D01*
X4963039Y-16566079D02*
X4972563Y-16547031D01*
X4972563Y-16547031D02*
X4982087Y-16537508D01*
X4982087Y-16537508D02*
X5001134Y-16527984D01*
X5153515Y-16708936D02*
X5163039Y-16718460D01*
X5163039Y-16718460D02*
X5153515Y-16727984D01*
X5153515Y-16727984D02*
X5143991Y-16718460D01*
X5143991Y-16718460D02*
X5153515Y-16708936D01*
X5153515Y-16708936D02*
X5153515Y-16727984D01*
X5353515Y-16727984D02*
X5239229Y-16727984D01*
X5296372Y-16727984D02*
X5296372Y-16527984D01*
X5296372Y-16527984D02*
X5277325Y-16556555D01*
X5277325Y-16556555D02*
X5258277Y-16575603D01*
X5258277Y-16575603D02*
X5239229Y-16585127D01*
X5477325Y-16527984D02*
X5496372Y-16527984D01*
X5496372Y-16527984D02*
X5515420Y-16537508D01*
X5515420Y-16537508D02*
X5524944Y-16547031D01*
X5524944Y-16547031D02*
X5534468Y-16566079D01*
X5534468Y-16566079D02*
X5543991Y-16604174D01*
X5543991Y-16604174D02*
X5543991Y-16651793D01*
X5543991Y-16651793D02*
X5534468Y-16689888D01*
X5534468Y-16689888D02*
X5524944Y-16708936D01*
X5524944Y-16708936D02*
X5515420Y-16718460D01*
X5515420Y-16718460D02*
X5496372Y-16727984D01*
X5496372Y-16727984D02*
X5477325Y-16727984D01*
X5477325Y-16727984D02*
X5458277Y-16718460D01*
X5458277Y-16718460D02*
X5448753Y-16708936D01*
X5448753Y-16708936D02*
X5439229Y-16689888D01*
X5439229Y-16689888D02*
X5429706Y-16651793D01*
X5429706Y-16651793D02*
X5429706Y-16604174D01*
X5429706Y-16604174D02*
X5439229Y-16566079D01*
X5439229Y-16566079D02*
X5448753Y-16547031D01*
X5448753Y-16547031D02*
X5458277Y-16537508D01*
X5458277Y-16537508D02*
X5477325Y-16527984D01*
X5715420Y-16527984D02*
X5677325Y-16527984D01*
X5677325Y-16527984D02*
X5658277Y-16537508D01*
X5658277Y-16537508D02*
X5648753Y-16547031D01*
X5648753Y-16547031D02*
X5629706Y-16575603D01*
X5629706Y-16575603D02*
X5620182Y-16613698D01*
X5620182Y-16613698D02*
X5620182Y-16689888D01*
X5620182Y-16689888D02*
X5629706Y-16708936D01*
X5629706Y-16708936D02*
X5639229Y-16718460D01*
X5639229Y-16718460D02*
X5658277Y-16727984D01*
X5658277Y-16727984D02*
X5696372Y-16727984D01*
X5696372Y-16727984D02*
X5715420Y-16718460D01*
X5715420Y-16718460D02*
X5724944Y-16708936D01*
X5724944Y-16708936D02*
X5734467Y-16689888D01*
X5734467Y-16689888D02*
X5734467Y-16642269D01*
X5734467Y-16642269D02*
X5724944Y-16623222D01*
X5724944Y-16623222D02*
X5715420Y-16613698D01*
X5715420Y-16613698D02*
X5696372Y-16604174D01*
X5696372Y-16604174D02*
X5658277Y-16604174D01*
X5658277Y-16604174D02*
X5639229Y-16613698D01*
X5639229Y-16613698D02*
X5629706Y-16623222D01*
X5629706Y-16623222D02*
X5620182Y-16642269D01*
X5801134Y-16527984D02*
X5924944Y-16527984D01*
X5924944Y-16527984D02*
X5858277Y-16604174D01*
X5858277Y-16604174D02*
X5886848Y-16604174D01*
X5886848Y-16604174D02*
X5905896Y-16613698D01*
X5905896Y-16613698D02*
X5915420Y-16623222D01*
X5915420Y-16623222D02*
X5924944Y-16642269D01*
X5924944Y-16642269D02*
X5924944Y-16689888D01*
X5924944Y-16689888D02*
X5915420Y-16708936D01*
X5915420Y-16708936D02*
X5905896Y-16718460D01*
X5905896Y-16718460D02*
X5886848Y-16727984D01*
X5886848Y-16727984D02*
X5829706Y-16727984D01*
X5829706Y-16727984D02*
X5810658Y-16718460D01*
X5810658Y-16718460D02*
X5801134Y-16708936D01*
X6001134Y-16527984D02*
X6001134Y-16566079D01*
X6077325Y-16527984D02*
X6077325Y-16566079D01*
X6372563Y-16804174D02*
X6363039Y-16794650D01*
X6363039Y-16794650D02*
X6343991Y-16766079D01*
X6343991Y-16766079D02*
X6334468Y-16747031D01*
X6334468Y-16747031D02*
X6324944Y-16718460D01*
X6324944Y-16718460D02*
X6315420Y-16670841D01*
X6315420Y-16670841D02*
X6315420Y-16632746D01*
X6315420Y-16632746D02*
X6324944Y-16585127D01*
X6324944Y-16585127D02*
X6334468Y-16556555D01*
X6334468Y-16556555D02*
X6343991Y-16537508D01*
X6343991Y-16537508D02*
X6363039Y-16508936D01*
X6363039Y-16508936D02*
X6372563Y-16499412D01*
X6534468Y-16594650D02*
X6534468Y-16727984D01*
X6486848Y-16518460D02*
X6439229Y-16661317D01*
X6439229Y-16661317D02*
X6563039Y-16661317D01*
X6791610Y-16727984D02*
X6791610Y-16527984D01*
X6877325Y-16727984D02*
X6877325Y-16623222D01*
X6877325Y-16623222D02*
X6867801Y-16604174D01*
X6867801Y-16604174D02*
X6848753Y-16594650D01*
X6848753Y-16594650D02*
X6820182Y-16594650D01*
X6820182Y-16594650D02*
X6801134Y-16604174D01*
X6801134Y-16604174D02*
X6791610Y-16613698D01*
X7001134Y-16727984D02*
X6982087Y-16718460D01*
X6982087Y-16718460D02*
X6972563Y-16708936D01*
X6972563Y-16708936D02*
X6963039Y-16689888D01*
X6963039Y-16689888D02*
X6963039Y-16632746D01*
X6963039Y-16632746D02*
X6972563Y-16613698D01*
X6972563Y-16613698D02*
X6982087Y-16604174D01*
X6982087Y-16604174D02*
X7001134Y-16594650D01*
X7001134Y-16594650D02*
X7029706Y-16594650D01*
X7029706Y-16594650D02*
X7048753Y-16604174D01*
X7048753Y-16604174D02*
X7058277Y-16613698D01*
X7058277Y-16613698D02*
X7067801Y-16632746D01*
X7067801Y-16632746D02*
X7067801Y-16689888D01*
X7067801Y-16689888D02*
X7058277Y-16708936D01*
X7058277Y-16708936D02*
X7048753Y-16718460D01*
X7048753Y-16718460D02*
X7029706Y-16727984D01*
X7029706Y-16727984D02*
X7001134Y-16727984D01*
X7182087Y-16727984D02*
X7163039Y-16718460D01*
X7163039Y-16718460D02*
X7153515Y-16699412D01*
X7153515Y-16699412D02*
X7153515Y-16527984D01*
X7334468Y-16718460D02*
X7315420Y-16727984D01*
X7315420Y-16727984D02*
X7277325Y-16727984D01*
X7277325Y-16727984D02*
X7258277Y-16718460D01*
X7258277Y-16718460D02*
X7248753Y-16699412D01*
X7248753Y-16699412D02*
X7248753Y-16623222D01*
X7248753Y-16623222D02*
X7258277Y-16604174D01*
X7258277Y-16604174D02*
X7277325Y-16594650D01*
X7277325Y-16594650D02*
X7315420Y-16594650D01*
X7315420Y-16594650D02*
X7334468Y-16604174D01*
X7334468Y-16604174D02*
X7343991Y-16623222D01*
X7343991Y-16623222D02*
X7343991Y-16642269D01*
X7343991Y-16642269D02*
X7248753Y-16661317D01*
X7420182Y-16718460D02*
X7439230Y-16727984D01*
X7439230Y-16727984D02*
X7477325Y-16727984D01*
X7477325Y-16727984D02*
X7496372Y-16718460D01*
X7496372Y-16718460D02*
X7505896Y-16699412D01*
X7505896Y-16699412D02*
X7505896Y-16689888D01*
X7505896Y-16689888D02*
X7496372Y-16670841D01*
X7496372Y-16670841D02*
X7477325Y-16661317D01*
X7477325Y-16661317D02*
X7448753Y-16661317D01*
X7448753Y-16661317D02*
X7429706Y-16651793D01*
X7429706Y-16651793D02*
X7420182Y-16632746D01*
X7420182Y-16632746D02*
X7420182Y-16623222D01*
X7420182Y-16623222D02*
X7429706Y-16604174D01*
X7429706Y-16604174D02*
X7448753Y-16594650D01*
X7448753Y-16594650D02*
X7477325Y-16594650D01*
X7477325Y-16594650D02*
X7496372Y-16604174D01*
X7572563Y-16804174D02*
X7582087Y-16794650D01*
X7582087Y-16794650D02*
X7601134Y-16766079D01*
X7601134Y-16766079D02*
X7610658Y-16747031D01*
X7610658Y-16747031D02*
X7620182Y-16718460D01*
X7620182Y-16718460D02*
X7629706Y-16670841D01*
X7629706Y-16670841D02*
X7629706Y-16632746D01*
X7629706Y-16632746D02*
X7620182Y-16585127D01*
X7620182Y-16585127D02*
X7610658Y-16556555D01*
X7610658Y-16556555D02*
X7601134Y-16537508D01*
X7601134Y-16537508D02*
X7582087Y-16508936D01*
X7582087Y-16508936D02*
X7572563Y-16499412D01*
X7934468Y-16804174D02*
X7924944Y-16794650D01*
X7924944Y-16794650D02*
X7905896Y-16766079D01*
X7905896Y-16766079D02*
X7896372Y-16747031D01*
X7896372Y-16747031D02*
X7886849Y-16718460D01*
X7886849Y-16718460D02*
X7877325Y-16670841D01*
X7877325Y-16670841D02*
X7877325Y-16632746D01*
X7877325Y-16632746D02*
X7886849Y-16585127D01*
X7886849Y-16585127D02*
X7896372Y-16556555D01*
X7896372Y-16556555D02*
X7905896Y-16537508D01*
X7905896Y-16537508D02*
X7924944Y-16508936D01*
X7924944Y-16508936D02*
X7934468Y-16499412D01*
X8010658Y-16594650D02*
X8010658Y-16727984D01*
X8010658Y-16613698D02*
X8020182Y-16604174D01*
X8020182Y-16604174D02*
X8039230Y-16594650D01*
X8039230Y-16594650D02*
X8067801Y-16594650D01*
X8067801Y-16594650D02*
X8086849Y-16604174D01*
X8086849Y-16604174D02*
X8096372Y-16623222D01*
X8096372Y-16623222D02*
X8096372Y-16727984D01*
X8220182Y-16727984D02*
X8201134Y-16718460D01*
X8201134Y-16718460D02*
X8191611Y-16708936D01*
X8191611Y-16708936D02*
X8182087Y-16689888D01*
X8182087Y-16689888D02*
X8182087Y-16632746D01*
X8182087Y-16632746D02*
X8191611Y-16613698D01*
X8191611Y-16613698D02*
X8201134Y-16604174D01*
X8201134Y-16604174D02*
X8220182Y-16594650D01*
X8220182Y-16594650D02*
X8248753Y-16594650D01*
X8248753Y-16594650D02*
X8267801Y-16604174D01*
X8267801Y-16604174D02*
X8277325Y-16613698D01*
X8277325Y-16613698D02*
X8286849Y-16632746D01*
X8286849Y-16632746D02*
X8286849Y-16689888D01*
X8286849Y-16689888D02*
X8277325Y-16708936D01*
X8277325Y-16708936D02*
X8267801Y-16718460D01*
X8267801Y-16718460D02*
X8248753Y-16727984D01*
X8248753Y-16727984D02*
X8220182Y-16727984D01*
X8343992Y-16594650D02*
X8420182Y-16594650D01*
X8372563Y-16527984D02*
X8372563Y-16699412D01*
X8372563Y-16699412D02*
X8382087Y-16718460D01*
X8382087Y-16718460D02*
X8401134Y-16727984D01*
X8401134Y-16727984D02*
X8420182Y-16727984D01*
X8639230Y-16594650D02*
X8639230Y-16794650D01*
X8639230Y-16604174D02*
X8658277Y-16594650D01*
X8658277Y-16594650D02*
X8696373Y-16594650D01*
X8696373Y-16594650D02*
X8715420Y-16604174D01*
X8715420Y-16604174D02*
X8724944Y-16613698D01*
X8724944Y-16613698D02*
X8734468Y-16632746D01*
X8734468Y-16632746D02*
X8734468Y-16689888D01*
X8734468Y-16689888D02*
X8724944Y-16708936D01*
X8724944Y-16708936D02*
X8715420Y-16718460D01*
X8715420Y-16718460D02*
X8696373Y-16727984D01*
X8696373Y-16727984D02*
X8658277Y-16727984D01*
X8658277Y-16727984D02*
X8639230Y-16718460D01*
X8848754Y-16727984D02*
X8829706Y-16718460D01*
X8829706Y-16718460D02*
X8820182Y-16699412D01*
X8820182Y-16699412D02*
X8820182Y-16527984D01*
X9010658Y-16727984D02*
X9010658Y-16623222D01*
X9010658Y-16623222D02*
X9001135Y-16604174D01*
X9001135Y-16604174D02*
X8982087Y-16594650D01*
X8982087Y-16594650D02*
X8943992Y-16594650D01*
X8943992Y-16594650D02*
X8924944Y-16604174D01*
X9010658Y-16718460D02*
X8991611Y-16727984D01*
X8991611Y-16727984D02*
X8943992Y-16727984D01*
X8943992Y-16727984D02*
X8924944Y-16718460D01*
X8924944Y-16718460D02*
X8915420Y-16699412D01*
X8915420Y-16699412D02*
X8915420Y-16680365D01*
X8915420Y-16680365D02*
X8924944Y-16661317D01*
X8924944Y-16661317D02*
X8943992Y-16651793D01*
X8943992Y-16651793D02*
X8991611Y-16651793D01*
X8991611Y-16651793D02*
X9010658Y-16642269D01*
X9077325Y-16594650D02*
X9153515Y-16594650D01*
X9105896Y-16527984D02*
X9105896Y-16699412D01*
X9105896Y-16699412D02*
X9115420Y-16718460D01*
X9115420Y-16718460D02*
X9134468Y-16727984D01*
X9134468Y-16727984D02*
X9153515Y-16727984D01*
X9296373Y-16718460D02*
X9277325Y-16727984D01*
X9277325Y-16727984D02*
X9239230Y-16727984D01*
X9239230Y-16727984D02*
X9220182Y-16718460D01*
X9220182Y-16718460D02*
X9210658Y-16699412D01*
X9210658Y-16699412D02*
X9210658Y-16623222D01*
X9210658Y-16623222D02*
X9220182Y-16604174D01*
X9220182Y-16604174D02*
X9239230Y-16594650D01*
X9239230Y-16594650D02*
X9277325Y-16594650D01*
X9277325Y-16594650D02*
X9296373Y-16604174D01*
X9296373Y-16604174D02*
X9305896Y-16623222D01*
X9305896Y-16623222D02*
X9305896Y-16642269D01*
X9305896Y-16642269D02*
X9210658Y-16661317D01*
X9477325Y-16727984D02*
X9477325Y-16527984D01*
X9477325Y-16718460D02*
X9458277Y-16727984D01*
X9458277Y-16727984D02*
X9420182Y-16727984D01*
X9420182Y-16727984D02*
X9401135Y-16718460D01*
X9401135Y-16718460D02*
X9391611Y-16708936D01*
X9391611Y-16708936D02*
X9382087Y-16689888D01*
X9382087Y-16689888D02*
X9382087Y-16632746D01*
X9382087Y-16632746D02*
X9391611Y-16613698D01*
X9391611Y-16613698D02*
X9401135Y-16604174D01*
X9401135Y-16604174D02*
X9420182Y-16594650D01*
X9420182Y-16594650D02*
X9458277Y-16594650D01*
X9458277Y-16594650D02*
X9477325Y-16604174D01*
X9553516Y-16804174D02*
X9563039Y-16794650D01*
X9563039Y-16794650D02*
X9582087Y-16766079D01*
X9582087Y-16766079D02*
X9591611Y-16747031D01*
X9591611Y-16747031D02*
X9601135Y-16718460D01*
X9601135Y-16718460D02*
X9610658Y-16670841D01*
X9610658Y-16670841D02*
X9610658Y-16632746D01*
X9610658Y-16632746D02*
X9601135Y-16585127D01*
X9601135Y-16585127D02*
X9591611Y-16556555D01*
X9591611Y-16556555D02*
X9582087Y-16537508D01*
X9582087Y-16537508D02*
X9563039Y-16508936D01*
X9563039Y-16508936D02*
X9553516Y-16499412D01*
M02*
