M48
; DRILL file {KiCad 9.0.2} date 2025-06-02T11:58:07-0400
; FORMAT={-:-/ absolute / metric / decimal}
; #@! TF.CreationDate,2025-06-02T11:58:07-04:00
; #@! TF.GenerationSoftware,Kicad,Pcbnew,9.0.2
; #@! TF.FileFunction,Plated,1,2,PTH
FMAT,2
METRIC
; #@! TA.AperFunction,Plated,PTH,ViaDrill
T1C0.300
; #@! TA.AperFunction,Plated,PTH,ComponentDrill
T2C0.780
; #@! TA.AperFunction,Plated,PTH,ComponentDrill
T3C1.000
; #@! TA.AperFunction,Plated,PTH,ComponentDrill
T4C1.016
; #@! TA.AperFunction,Plated,PTH,ComponentDrill
T5C1.020
; #@! TA.AperFunction,Plated,PTH,ComponentDrill
T6C1.194
; #@! TA.AperFunction,Plated,PTH,ComponentDrill
T7C1.295
; #@! TA.AperFunction,Plated,PTH,ComponentDrill
T8C6.100
%
G90
G05
T1
X51.85Y-66.5
X54.15Y-65.6
X58.55Y-64.3
X65.85Y-48.2
X65.925Y-50.775
X72.7Y-124.8
X72.95Y-53.25
X75.35Y-52.4
X79.8Y-139.5
X82.825Y-57.975
X86.975Y-72.6
X89.0Y-43.825
X89.575Y-71.15
X92.775Y-61.425
X93.47Y-116.53
X95.425Y-53.9
X96.8Y-50.375
X98.25Y-57.7
X98.525Y-96.375
X100.1Y-28.8
X101.25Y-55.6
X101.95Y-50.375
X103.0Y-63.975
X107.0Y-28.7
X108.75Y-110.85
X108.75Y-114.1
X110.925Y-61.75
X110.95Y-56.1
X115.125Y-50.05
X116.975Y-81.925
X117.625Y-36.7
X118.65Y-102.9
X118.7Y-114.3
X120.0Y-65.9
X122.025Y-50.1
X122.55Y-147.25
X125.5Y-61.525
X127.873Y-144.173
X127.875Y-146.55
X131.3Y-29.2
X134.4Y-50.1
X137.95Y-50.15
X138.075Y-135.425
X138.075Y-137.775
X138.5Y-29.2
X140.8Y-114.15
X143.5Y-135.4
X143.5Y-137.825
X143.5Y-144.175
X143.5Y-146.6
X145.85Y-116.2
X148.5Y-126.874
X148.775Y-81.55
X148.95Y-36.8
X153.2Y-56.8
X154.625Y-120.6
T2
X76.35Y-142.65
X76.35Y-145.19
X76.35Y-147.73
X76.35Y-150.27
X84.29Y-142.65
X84.29Y-145.19
X84.29Y-147.73
X84.29Y-150.27
X93.85Y-131.95
X93.85Y-134.49
X93.85Y-137.03
X93.85Y-139.57
X94.03Y-40.44
X94.03Y-42.98
X94.03Y-45.52
X94.03Y-48.06
X101.79Y-131.95
X101.79Y-134.49
X101.79Y-137.03
X101.79Y-139.57
X101.97Y-40.44
X101.97Y-42.98
X101.97Y-45.52
X101.97Y-48.06
X112.88Y-121.14
X112.88Y-123.68
X112.88Y-126.22
X112.88Y-128.76
X114.06Y-40.46
X114.06Y-43.0
X114.06Y-45.54
X114.06Y-48.08
X120.82Y-121.14
X120.82Y-123.68
X120.82Y-126.22
X120.82Y-128.76
X122.0Y-40.46
X122.0Y-43.0
X122.0Y-45.54
X122.0Y-48.08
X133.0Y-40.46
X133.0Y-43.0
X133.0Y-45.54
X133.0Y-48.08
X140.94Y-40.46
X140.94Y-43.0
X140.94Y-45.54
X140.94Y-48.08
T3
X87.094Y-103.256
X87.094Y-105.796
X89.634Y-103.256
X89.634Y-105.796
X92.174Y-103.256
X92.174Y-105.796
X94.714Y-103.256
X94.714Y-105.796
T4
X60.75Y-60.31
X60.75Y-62.85
X60.75Y-103.49
X60.75Y-106.03
X63.29Y-60.31
X63.29Y-62.85
X63.29Y-103.49
X63.29Y-106.03
X65.83Y-60.31
X65.83Y-62.85
X65.83Y-103.49
X65.83Y-106.03
X68.37Y-60.31
X68.37Y-62.85
X68.37Y-103.49
X68.37Y-106.03
X70.91Y-60.31
X70.91Y-62.85
X70.91Y-103.49
X70.91Y-106.03
X73.45Y-60.31
X73.45Y-62.85
X73.45Y-103.49
X73.45Y-106.03
X75.99Y-60.31
X75.99Y-62.85
X75.99Y-103.49
X75.99Y-106.03
X78.53Y-60.31
X78.53Y-62.85
X78.53Y-103.49
X78.53Y-106.03
X81.07Y-60.31
X81.07Y-62.85
X81.07Y-103.49
X81.07Y-106.03
X83.61Y-60.31
X83.61Y-62.85
X83.61Y-103.49
X83.61Y-106.03
X124.25Y-60.31
X124.25Y-62.85
X124.25Y-103.49
X124.25Y-106.03
X126.79Y-60.31
X126.79Y-62.85
X126.79Y-103.49
X126.79Y-106.03
X129.33Y-60.31
X129.33Y-62.85
X129.33Y-103.49
X129.33Y-106.03
X131.87Y-60.31
X131.87Y-62.85
X131.87Y-103.49
X131.87Y-106.03
X134.41Y-60.31
X134.41Y-62.85
X134.41Y-103.49
X134.41Y-106.03
X136.95Y-60.31
X136.95Y-62.85
X136.95Y-103.49
X136.95Y-106.03
X139.49Y-60.31
X139.49Y-62.85
X139.49Y-103.49
X139.49Y-106.03
X142.03Y-60.31
X142.03Y-62.85
X142.03Y-103.49
X142.03Y-106.03
X144.57Y-60.31
X144.57Y-62.85
X144.57Y-103.49
X144.57Y-106.03
X147.11Y-60.31
X147.11Y-62.85
X147.11Y-103.49
X147.11Y-106.03
X152.19Y-60.31
X152.19Y-106.03
X154.73Y-60.31
X154.73Y-106.03
X157.27Y-60.31
X157.27Y-65.39
X157.27Y-67.93
X157.27Y-70.47
X157.27Y-73.01
X157.27Y-75.55
X157.27Y-80.63
X157.27Y-83.17
X157.27Y-85.71
X157.27Y-88.25
X157.27Y-90.79
X157.27Y-95.87
X157.27Y-98.41
X157.27Y-100.95
X157.27Y-106.03
T5
X34.1Y-47.0
X34.1Y-49.54
X36.64Y-47.0
X36.64Y-49.54
X39.18Y-47.0
X39.18Y-49.54
X41.72Y-47.0
X41.72Y-49.54
X44.26Y-47.0
X44.26Y-49.54
X46.8Y-47.0
X46.8Y-49.54
X49.34Y-47.0
X49.34Y-49.54
X51.88Y-47.0
X51.88Y-49.54
X54.42Y-47.0
X54.42Y-49.54
X56.96Y-47.0
X56.96Y-49.54
X59.5Y-47.0
X59.5Y-49.54
X62.04Y-47.0
X62.04Y-49.54
X64.58Y-47.0
X64.58Y-49.54
X67.12Y-47.0
X67.12Y-49.54
X69.66Y-47.0
X69.66Y-49.54
X72.2Y-47.0
X72.2Y-49.54
X74.74Y-47.0
X74.74Y-49.54
X77.28Y-47.0
X77.28Y-49.54
X79.82Y-47.0
X79.82Y-49.54
X82.36Y-47.0
X82.36Y-49.54
T6
X99.65Y-20.4
X103.15Y-20.4
X106.65Y-20.4
X110.15Y-20.4
X113.65Y-20.4
X131.15Y-20.5
X134.65Y-20.5
X138.15Y-20.5
X141.65Y-20.5
X145.15Y-20.5
T7
X130.35Y-153.05
X135.35Y-153.05
X140.35Y-153.05
X153.05Y-129.95
X153.05Y-134.95
X153.05Y-139.95
T8
X35.35Y-137.95
X35.45Y-120.78
X49.95Y-152.95
M30
